PathFileType	4	(X/Y/Z)	 s11c0302.trc
DataRate	CameraRate	NumFrames	NumMarkers	Units	OrigDataRate	OrigDataStartFrame	OrigNumFrames
200	200	4	48	mm	200	251	2000
Frame#	Time	racr			lacr			c7			jug			rlel			rdr			llel			ldr			s2			lic			ric			lasi			rasi			rpsi			lpsi			rgt			lgt			rth1			rth2			rth3			rth4			rlfc			rmfc			rsh1			rsh2			rsh3			rsh4			rlmal			rcal			rtoe			rmt5			lth1			lth2			lth4			lth3			llfc			lmfc			llmal			lcal			lmt5			lsh1			lsh2			lsh3			lsh4			ltoe			SBIKE			LBIKE			RBIKE			
		X1	Y1	Z1	X2	Y2	Z2	X3	Y3	Z3	X4	Y4	Z4	X5	Y5	Z5	X6	Y6	Z6	X7	Y7	Z7	X8	Y8	Z8	X9	Y9	Z9	X10	Y10	Z10	X11	Y11	Z11	X12	Y12	Z12	X13	Y13	Z13	X14	Y14	Z14	X15	Y15	Z15	X16	Y16	Z16	X17	Y17	Z17	X18	Y18	Z18	X19	Y19	Z19	X20	Y20	Z20	X21	Y21	Z21	X22	Y22	Z22	X23	Y23	Z23	X24	Y24	Z24	X25	Y25	Z25	X26	Y26	Z26	X27	Y27	Z27	X28	Y28	Z28	X29	Y29	Z29	X30	Y30	Z30	X31	Y31	Z31	X32	Y32	Z32	X33	Y33	Z33	X34	Y34	Z34	X35	Y35	Z35	X36	Y36	Z36	X37	Y37	Z37	X38	Y38	Z38	X39	Y39	Z39	X40	Y40	Z40	X41	Y41	Z41	X42	Y42	Z42	X43	Y43	Z43	X44	Y44	Z44	X45	Y45	Z45	X46	Y46	Z46	X47	Y47	Z47	X48	Y48	Z48	
251	1.2550	432.477399	1370.519403	-79.514371	443.824527	1407.899593	-384.314869	357.043440	1504.929938	-229.050243	384.413745	1327.420462	-243.438576	572.647202	1144.800140	-23.182581	789.406598	932.259956	-51.873803	560.739395	1134.381656	-457.765549	806.669028	921.399435	-422.535642	-183.306222	1227.889054	-247.903017	32.335811	1254.671571	-433.882838	38.351274	1225.501610	-44.593365	58.056580	1169.011082	-412.871987	62.303688	1156.345699	-77.372739	-137.809293	1300.150068	-190.963252	-142.591117	1300.936647	-283.704564	-23.754571	1078.905891	-29.317321	-48.512495	1118.287518	-461.230141	71.000317	973.346522	-26.751289	150.422120	924.039861	-34.761303	191.068424	847.459165	-51.286130	176.807004	949.197748	-42.172004	255.896219	763.591473	-66.143774	255.774089	748.004740	-192.659342	167.719023	628.031863	-58.676401	139.223455	546.920814	-80.132854	74.522370	488.579927	-84.420394	160.811386	538.367083	-112.140395	-12.361190	387.020199	-102.447267	-78.446093	380.843250	-153.085632	193.458143	292.903426	-137.148362	117.707702	279.970322	-70.717593	76.986634	1031.147825	-478.684797	157.239891	1001.686424	-476.364172	179.460720	1030.412418	-469.648382	214.448742	932.133637	-474.738647	323.316124	843.166729	-452.655332	341.312957	841.528180	-327.161646	258.370281	417.283391	-411.666704	216.530245	356.645243	-373.217572	424.502492	370.264603	-440.206099	301.275437	716.574630	-465.508017	315.989984	633.467764	-447.543559	286.815580	550.827628	-438.651557	346.931683	635.099435	-425.634029	506.303729	423.598411	-370.072346	-205.881671	952.020200	-262.474469	1.434791	82.492998	-461.118480	-15.281079	81.081873	-62.493065	
252	1.2600	432.471591	1370.549175	-79.453361	443.873662	1407.795581	-384.114488	357.113531	1504.923165	-228.980719	384.304265	1327.334034	-243.379005	572.706280	1144.835181	-23.140232	789.418571	932.256763	-51.861451	561.392721	1134.889506	-458.105689	806.590754	921.424150	-422.558278	-183.313352	1228.077064	-247.967575	32.320469	1254.766793	-433.981424	38.255499	1225.657583	-44.609262	58.036149	1169.112201	-412.940325	62.149344	1156.477761	-77.368004	-137.867994	1300.501827	-191.048236	-142.606315	1301.141078	-283.757729	-23.931495	1079.072095	-29.277934	-48.611572	1118.414562	-461.219585	70.844693	973.445258	-26.621617	150.140623	924.161912	-34.532802	190.685338	847.623174	-50.891080	176.555806	949.263980	-41.930897	255.555090	763.621230	-65.779399	255.610000	747.999804	-192.277303	167.442091	628.028057	-58.404674	138.987372	546.884638	-79.924031	74.310631	488.570485	-84.253254	160.600332	538.364352	-111.901320	-12.476947	386.896407	-102.420216	-78.521128	380.681703	-153.130565	193.429268	292.954572	-137.132457	117.679268	279.947158	-70.688363	76.841027	1031.277450	-478.776418	157.086322	1001.771016	-476.507372	179.324385	1030.473076	-469.808313	214.262425	932.196416	-474.919301	323.051317	843.186688	-452.977300	341.172148	841.529941	-327.498164	258.332409	417.228360	-411.681575	216.520144	356.601969	-373.240123	424.475063	370.262226	-440.219631	301.050044	716.513836	-465.655460	315.812354	633.445284	-447.733326	286.690532	550.775167	-438.784933	346.767305	635.112182	-425.832904	506.262904	423.654031	-370.071160	-205.888486	952.020222	-262.470864	1.371656	82.599026	-461.018985	-15.213059	81.082278	-62.573989	
253	1.2650	432.492250	1370.582038	-79.428681	443.908950	1407.696924	-383.911146	357.161609	1504.920675	-228.888273	384.242050	1327.344567	-243.307863	572.778743	1144.876026	-23.122287	789.459017	932.247581	-51.828104	562.008098	1135.365214	-458.382954	805.226468	920.010374	-420.401001	-183.365362	1228.336139	-247.979878	32.327554	1254.914794	-433.879189	38.143176	1225.769799	-44.633539	57.938833	1169.219528	-412.876407	62.036479	1156.611352	-77.371863	-137.868610	1300.660323	-191.114049	-142.591193	1301.321093	-283.802599	-24.093428	1079.262046	-29.242547	-48.642792	1118.827216	-461.112818	70.669372	973.539911	-26.496289	149.858093	924.256691	-34.308884	190.387337	847.686683	-50.620367	176.289119	949.362518	-41.680076	255.215969	763.640671	-65.418031	255.428219	748.027063	-191.854375	167.152858	628.012400	-58.145063	138.746944	546.849655	-79.688307	74.094068	488.519346	-84.084511	160.426665	538.373798	-111.638266	-12.601554	386.790644	-102.372578	-78.659693	380.400821	-152.904364	193.377855	293.023671	-137.105072	117.642905	279.909477	-70.686271	76.717948	1031.408257	-478.851376	156.963628	1001.853798	-476.640727	179.208897	1030.545711	-469.957072	214.081914	932.257631	-475.093118	322.803839	843.133966	-453.189095	341.051992	841.592112	-327.747001	258.316029	417.191468	-411.734569	216.508871	356.556632	-373.243483	424.475844	370.258091	-440.222423	300.855813	716.444905	-465.817942	315.648373	633.364982	-447.896469	286.596676	550.724891	-438.871034	346.627786	635.109159	-426.014236	506.234734	423.686964	-370.061341	-205.871367	952.027277	-262.490994	1.389672	82.588331	-461.016213	-15.221308	81.086683	-62.583740	
254	1.2700	432.495323	1370.621380	-79.412668	443.951170	1407.598093	-383.700187	357.270764	1504.926595	-228.776415	384.198934	1327.381238	-243.226786	572.857087	1144.916499	-23.127004	789.478233	932.229305	-51.809593	562.623722	1135.783740	-458.678230	805.139384	920.026115	-420.400441	-183.432172	1228.536232	-247.976905	32.344604	1255.110320	-434.124331	38.073897	1225.852259	-44.664894	58.026551	1169.444578	-413.087426	61.940634	1156.731445	-77.368840	-137.868600	1300.851055	-191.144908	-142.533288	1301.563858	-283.866429	-24.237023	1079.426634	-29.234754	-48.670702	1119.010855	-461.135103	70.331558	973.728469	-26.349295	149.581795	924.412099	-34.074191	190.109963	847.739334	-50.348067	176.059856	949.423719	-41.436615	254.898860	763.669356	-65.098261	255.240316	748.074886	-191.446133	166.874853	627.980086	-57.888285	138.491738	546.887728	-79.489931	73.915513	488.486779	-83.954767	160.230042	538.366280	-111.374000	-12.726586	386.666452	-102.337687	-78.777247	380.258159	-152.895624	193.328924	293.149168	-137.092189	117.618240	279.928810	-70.667764	76.601423	1031.545309	-478.940116	156.837334	1001.948133	-476.803906	179.106111	1030.621183	-470.111238	213.924100	932.307549	-475.268960	322.567223	843.125697	-453.443222	340.962403	841.639793	-328.002946	258.310244	417.101482	-411.764921	216.497708	356.482458	-373.229243	424.474164	370.244249	-440.223617	300.677115	716.397126	-466.005826	315.516185	633.323695	-448.062606	286.498328	550.647936	-438.974376	346.488561	635.097702	-426.195677	506.209393	423.717443	-370.082757	-205.861661	952.025940	-262.448684	1.444251	82.498154	-461.096068	-15.219597	81.100828	-62.579670	
